<?xml version="1.0" encoding="UTF-8"?>
<svg id="Layer_2" data-name="Layer 2" xmlns="http://www.w3.org/2000/svg" xmlns:xlink="http://www.w3.org/1999/xlink" viewBox="0 0 232.24 175.56">
  <defs>
    <style>
      .cls-1 {
        fill: url(#linear-gradient-5);
      }

      .cls-2 {
        fill: url(#linear-gradient-4);
      }

      .cls-3 {
        fill: url(#linear-gradient-3);
      }

      .cls-4 {
        fill: url(#linear-gradient-2);
      }

      .cls-5 {
        fill: url(#linear-gradient);
      }
    </style>
    <linearGradient id="linear-gradient" x1="-56.05" y1="-22.33" x2="207.13" y2="172.02" gradientUnits="userSpaceOnUse">
      <stop offset="0" stop-color="#19f5f5"/>
      <stop offset=".23" stop-color="#f5b7d2"/>
      <stop offset=".43" stop-color="#e744f6"/>
      <stop offset=".63" stop-color="#862dfb"/>
      <stop offset="1" stop-color="#00dbf9"/>
    </linearGradient>
    <linearGradient id="linear-gradient-2" x1="-41.37" y1="-42.2" x2="221.8" y2="152.15" xlink:href="#linear-gradient"/>
    <linearGradient id="linear-gradient-3" x1="-56.05" y1="-22.33" x2="207.13" y2="172.02" xlink:href="#linear-gradient"/>
    <linearGradient id="linear-gradient-4" x1="-88.24" y1="21.26" x2="174.94" y2="215.61" gradientTransform="translate(121.98 -32) rotate(36.88)" xlink:href="#linear-gradient"/>
    <linearGradient id="linear-gradient-5" x1="-83.19" y1="14.43" x2="179.99" y2="208.77" gradientTransform="translate(147 -40.45) rotate(42.56)" xlink:href="#linear-gradient"/>
  </defs>
  <g id="Layer_1-2" data-name="Layer 1">
    <g>
      <path class="cls-5" d="M164.22,106.59l-35.25,42.1c-.34.4-.73.73-1.14.98-.27.16-.58.3-.86.39-.45.15-.91.23-1.38.23-.43,0-.85-.06-1.26-.19-.41-.11-.81-.3-1.18-.54-.55-.35-1.03-.84-1.38-1.44-.13-.2-.23-.41-.31-.64l-19.28-48.57c-.16-.41-.26-.83-.3-1.24-.1-1.03.18-2.03.71-2.84.13-.18.26-.35.4-.51.05-.05.09-.09.14-.14.2-.21.41-.39.65-.55.71-.49,1.56-.78,2.49-.78.18,0,.36,0,.54.03l54.53,6.48c3.49.41,5.13,4.54,2.88,7.23Z"/>
      <path class="cls-4" d="M230.26,14.34c-.05-2.3-2.94-3.3-4.4-1.53l-32,39.02c-1.54,1.86-4.43,1.8-5.88-.14L150.08.99c-1.16-1.55-3.58-1.23-4.29.58l-23.11,58.38c-.95,2.39-3.98,3.14-5.91,1.44-10.58-9.28-37.7-33.07-47.18-41.38-1.45-1.27-3.74-.46-4.06,1.45l-10.6,62.42c-.4,2.39-2.94,3.76-5.16,2.79L3.47,66.57c-2.11-.93-4.23,1.29-3.21,3.36l47.48,96.92c2.18,4.44,6.48,7.43,11.39,7.91,10.21,1.01,28.18-.34,44.32-17.41,3.36-3.55,4.55-8.65,3.14-13.33l-12.54-41.89c-1.61-4.06-1.11-8.64,1.35-12.25,2.45-3.63,6.53-5.78,10.88-5.78.52,0,1.05.03,1.58.09l54.53,6.48c4.8.56,8.9,3.71,10.69,8.21,1.79,4.5.96,9.6-2.15,13.31l-25.47,38.8c-3.36,5.13.2,12.04,6.34,12.13,31.65.44,62.36-19.9,74.8-29.25,3.64-2.74,5.74-7.06,5.65-11.63l-1.98-107.91ZM26.7,98.96c10.89,13.65,19.7,28.93,26.12,45.18-10.88-13.68-19.71-28.93-26.12-45.18ZM64.03,86.44c.18-17.46,2.94-34.89,8.23-51.54-.16,17.48-2.96,34.89-8.23,51.54ZM133.55,64.99c2.66-17.28,7.86-34.12,15.45-49.86-2.64,17.28-7.88,34.1-15.45,49.86ZM170.42,150.28c13.68-10.88,28.93-19.71,45.19-26.1-13.66,10.89-28.94,19.69-45.19,26.1ZM185.73,128.98c10.15-8.23,21.93-14.4,34.48-18.05-10.15,8.25-21.94,14.39-34.48,18.05ZM220.48,82.34c-1.56-17.4-.55-35,3.06-52.09,1.58,17.39.51,34.99-3.06,52.09Z"/>
      <path class="cls-3" d="M164.22,106.59l-35.25,42.1c-.34.4-.73.73-1.14.98-.27.16-.56.29-.86.39-.86.28-1.79.29-2.64.04-.41-.11-.81-.3-1.18-.54-.54-.35-1.01-.84-1.38-1.44-.13-.2-.23-.41-.31-.64l-19.28-48.57c-.16-.41-.26-.83-.3-1.24-.1-1.03.18-2.03.71-2.84.13-.18.26-.35.4-.51.05-.05.09-.09.14-.14.2-.21.41-.39.65-.55.71-.49,1.56-.78,2.49-.78.18,0,.36,0,.54.03l54.53,6.48c3.49.41,5.13,4.54,2.88,7.23Z"/>
      <ellipse class="cls-2" cx="108.97" cy="166.89" rx="13.77" ry="3.27" transform="translate(-78.36 98.81) rotate(-36.88)"/>
      <ellipse class="cls-1" cx="125.43" cy="168.48" rx="9.14" ry="2.17" transform="translate(-80.91 129.22) rotate(-42.56)"/>
    </g>
  </g>
</svg>