<?xml version="1.0" encoding="UTF-8"?>
<svg id="Layer_2" data-name="Layer 2" xmlns="http://www.w3.org/2000/svg" xmlns:xlink="http://www.w3.org/1999/xlink" viewBox="0 0 520.78 135.69">
  <defs>
    <style>
      .cls-1 {
        fill: url(#linear-gradient-5);
      }

      .cls-2 {
        fill: url(#linear-gradient-4);
      }

      .cls-3 {
        fill: url(#linear-gradient-3);
      }

      .cls-4 {
        fill: url(#linear-gradient-2);
      }

      .cls-5 {
        fill: url(#linear-gradient);
      }

      .cls-6 {
        fill: #fff;
      }
    </style>
    <linearGradient id="linear-gradient" x1="-43.32" y1="-17.26" x2="160.09" y2="132.96" gradientUnits="userSpaceOnUse">
      <stop offset="0" stop-color="#19f5f5"/>
      <stop offset=".23" stop-color="#f5b7d2"/>
      <stop offset=".43" stop-color="#e744f6"/>
      <stop offset=".63" stop-color="#862dfb"/>
      <stop offset="1" stop-color="#00dbf9"/>
    </linearGradient>
    <linearGradient id="linear-gradient-2" x1="-31.98" y1="-32.62" x2="171.44" y2="117.6" xlink:href="#linear-gradient"/>
    <linearGradient id="linear-gradient-3" x1="-43.32" y1="-17.26" x2="160.09" y2="132.96" xlink:href="#linear-gradient"/>
    <linearGradient id="linear-gradient-4" x1="-68.2" y1="16.43" x2="135.21" y2="166.65" gradientTransform="translate(94.28 -24.73) rotate(36.88)" xlink:href="#linear-gradient"/>
    <linearGradient id="linear-gradient-5" x1="-64.3" y1="11.15" x2="139.11" y2="161.36" gradientTransform="translate(113.62 -31.27) rotate(42.56)" xlink:href="#linear-gradient"/>
  </defs>
  <g id="Layer_1-2" data-name="Layer 1">
    <g>
      <g>
        <path class="cls-6" d="M281.43,31.99v71.3h-13.95v-46.24l-20.07,33.1h-1.63l-20.06-33v46.14h-14.06V31.99h14.46l20.47,33.71,20.37-33.71h14.46Z"/>
        <path class="cls-6" d="M325.02,52.36h14.06l-18.54,50.93c-2.65,7.33-6.16,12.65-10.54,15.94-4.38,3.29-9.83,4.77-16.35,4.43v-12.22c3.53.07,6.33-.68,8.4-2.24,2.07-1.56,3.72-4.07,4.94-7.54l-20.88-49.3h14.36l13.24,34.22,11.31-34.22Z"/>
        <path class="cls-6" d="M357.71,89.85h30.05v13.44h-44.1V31.99h43.59v13.44h-29.54v15.18h26.99v13.24h-26.99v15.99Z"/>
        <path class="cls-6" d="M432.27,31.99h13.14v71.3h-13.14v-6.01c-3.87,4.96-9.37,7.44-16.5,7.44s-12.72-2.6-17.57-7.79c-4.86-5.19-7.28-11.56-7.28-19.1s2.43-13.9,7.28-19.1c4.85-5.19,10.71-7.79,17.57-7.79s12.63,2.48,16.5,7.44v-26.38ZM408.08,88.17c2.68,2.68,6.06,4.02,10.13,4.02s7.44-1.34,10.08-4.02c2.65-2.68,3.97-6.13,3.97-10.34s-1.32-7.66-3.97-10.34c-2.65-2.68-6.01-4.02-10.08-4.02s-7.45,1.34-10.13,4.02-4.02,6.13-4.02,10.34,1.34,7.66,4.02,10.34Z"/>
        <path class="cls-6" d="M484.32,64.99h-11.51v21.19c0,1.77.44,3.06,1.32,3.87.88.82,2.17,1.27,3.87,1.38,1.7.1,3.8.09,6.32-.05v11.92c-9.03,1.02-15.4.17-19.1-2.55-3.7-2.72-5.55-7.57-5.55-14.57v-21.19h-8.86v-12.63h8.86v-10.29l13.14-3.97v14.26h11.51v12.63Z"/>
        <path class="cls-6" d="M505.3,61.12c1.22-3.26,3.24-5.7,6.06-7.33,2.82-1.63,5.96-2.44,9.42-2.44v14.67c-4.01-.47-7.59.34-10.75,2.44-3.16,2.11-4.74,5.6-4.74,10.49v24.34h-13.14v-50.93h13.14v8.76Z"/>
      </g>
      <g>
        <path class="cls-5" d="M126.93,82.39l-27.25,32.54c-.26.31-.56.56-.88.75-.21.13-.44.23-.67.3-.35.12-.71.17-1.06.17-.33,0-.66-.05-.98-.14-.32-.09-.63-.23-.91-.42-.43-.27-.79-.65-1.06-1.11-.1-.15-.17-.32-.24-.49l-14.9-37.54c-.13-.32-.2-.64-.23-.96-.08-.79.14-1.57.55-2.19.1-.14.2-.27.31-.4.04-.04.07-.07.11-.11.15-.16.32-.3.5-.43.55-.38,1.21-.6,1.92-.6.14,0,.28,0,.42.02l42.15,5.01c2.7.32,3.96,3.51,2.22,5.58Z"/>
        <path class="cls-4" d="M177.97,11.09c-.04-1.78-2.27-2.55-3.4-1.18l-24.74,30.16c-1.19,1.44-3.42,1.39-4.54-.11L116,.77c-.9-1.2-2.76-.95-3.31.44l-17.87,45.12c-.73,1.85-3.07,2.43-4.57,1.11-8.17-7.17-29.14-25.56-36.47-31.98-1.12-.99-2.89-.36-3.14,1.12l-8.19,48.24c-.31,1.85-2.27,2.91-3.99,2.15L2.69,51.46c-1.63-.72-3.27,1-2.48,2.6l36.7,74.91c1.68,3.43,5.01,5.74,8.8,6.12,7.89.78,21.78-.26,34.25-13.46,2.6-2.74,3.52-6.69,2.43-10.3l-9.69-32.38c-1.25-3.14-.86-6.68,1.04-9.47,1.89-2.8,5.04-4.46,8.41-4.46.41,0,.81.02,1.22.07l42.15,5.01c3.71.44,6.88,2.87,8.26,6.35,1.38,3.48.74,7.42-1.66,10.29l-19.68,29.99c-2.6,3.96.15,9.31,4.9,9.37,24.47.34,48.2-15.38,57.81-22.61,2.81-2.12,4.44-5.46,4.37-8.99l-1.53-83.41ZM20.64,76.49c8.42,10.55,15.23,22.36,20.18,34.92-8.41-10.57-15.24-22.36-20.18-34.92ZM49.49,66.81c.14-13.5,2.27-26.97,6.36-39.84-.13,13.51-2.29,26.97-6.36,39.84ZM103.22,50.23c2.06-13.35,6.08-26.37,11.94-38.53-2.04,13.35-6.09,26.36-11.94,38.53ZM131.72,116.16c10.57-8.41,22.36-15.24,34.93-20.18-10.56,8.42-22.37,15.22-34.93,20.18ZM143.55,99.69c7.85-6.36,16.95-11.13,26.65-13.95-7.85,6.38-16.96,11.12-26.65,13.95ZM170.42,63.64c-1.21-13.45-.43-27.05,2.37-40.26,1.22,13.44.4,27.05-2.37,40.26Z"/>
        <path class="cls-3" d="M126.93,82.39l-27.25,32.54c-.26.31-.56.56-.88.75-.21.13-.43.22-.67.3-.67.21-1.38.22-2.04.03-.32-.09-.63-.23-.91-.42-.42-.27-.78-.65-1.06-1.11-.1-.15-.17-.32-.24-.49l-14.9-37.54c-.13-.32-.2-.64-.23-.96-.08-.79.14-1.57.55-2.19.1-.14.2-.27.31-.4.04-.04.07-.07.11-.11.15-.16.32-.3.5-.43.55-.38,1.21-.6,1.92-.6.14,0,.28,0,.42.02l42.15,5.01c2.7.32,3.96,3.51,2.22,5.58Z"/>
        <ellipse class="cls-2" cx="84.22" cy="128.99" rx="10.64" ry="2.52" transform="translate(-60.56 76.37) rotate(-36.88)"/>
        <ellipse class="cls-1" cx="96.95" cy="130.22" rx="7.07" ry="1.68" transform="translate(-62.54 99.88) rotate(-42.56)"/>
      </g>
    </g>
  </g>
</svg>